<?xml version="1.0" encoding="UTF-8" standalone="no"?>
<svg
   height="29.014"
   viewBox="0 0 288 29.014"
   width="288"
   version="1.1"
   id="svg14"
   sodipodi:docname="logo.svg"
   inkscape:version="1.2.2 (732a01da63, 2022-12-09)"
   xmlns:inkscape="http://www.inkscape.org/namespaces/inkscape"
   xmlns:sodipodi="http://sodipodi.sourceforge.net/DTD/sodipodi-0.dtd"
   xmlns="http://www.w3.org/2000/svg"
   xmlns:svg="http://www.w3.org/2000/svg">
  <defs
     id="defs18" />
  <sodipodi:namedview
     id="namedview16"
     pagecolor="#ffffff"
     bordercolor="#000000"
     borderopacity="0.25"
     inkscape:showpageshadow="2"
     inkscape:pageopacity="0.0"
     inkscape:pagecheckerboard="0"
     inkscape:deskcolor="#d1d1d1"
     showgrid="false"
     inkscape:zoom="2.7743056"
     inkscape:cx="133.90738"
     inkscape:cy="86.508135"
     inkscape:window-width="1920"
     inkscape:window-height="975"
     inkscape:window-x="-8"
     inkscape:window-y="-8"
     inkscape:window-maximized="1"
     inkscape:current-layer="svg14" />
  <g
     stroke-width="3.02511"
     transform="matrix(0.33056713,0,0,0.33056713,48,0)"
     id="g12">
    <path
       d="m 72.609375,0 v 87.179688 h 8.339844 V 0 Z M 0,4.9296875 V 87.189453 H 8.6894531 V 52.289062 H 51.230469 V 44.769531 H 8.6894531 V 12.460938 12.449219 H 56.400391 V 4.9296875 Z m 184.69922,6.9394535 v 13.511718 h -11.04883 v 7.048829 h 11.04883 v 37.359374 c 0,5.720001 1.57117,10.151251 4.70117,13.28125 3.14,3.13 7.60039,4.699219 13.40039,4.699219 2.51,0 4.91852,-0.37914 7.22852,-1.11914 2.31,-0.74 4.25031,-1.820469 5.82031,-3.230469 h -0.0195 l -2.93946,-5.990234 c -1.16999,1.019999 -2.56992,1.799609 -4.16992,2.349609 -1.6,0.55 -3.27023,0.820312 -4.99023,0.820312 -3.45,0 -6.08969,-0.958906 -7.92969,-2.878906 -1.84,-1.92 -2.76172,-4.72039 -2.76172,-8.400391 V 32.429688 h 18.80078 V 25.380859 H 193.03906 V 11.869141 Z m 46.05078,0 v 13.511718 h -11.05078 v 7.048829 H 230.75 v 37.359374 c 0,5.720001 1.56922,10.151251 4.69922,13.28125 3.14,3.13 7.60039,4.699219 13.40039,4.699219 2.51,0 4.92047,-0.37914 7.23047,-1.11914 2.31,-0.74 4.25031,-1.820469 5.82031,-3.230469 h -0.0195 l -2.94141,-5.990234 c -1.17,1.019999 -2.56992,1.799609 -4.16992,2.349609 -1.6,0.55 -3.27023,0.820312 -4.99023,0.820312 -3.45,0 -6.08969,-0.958906 -7.92969,-2.878906 -1.84,-1.92 -2.75977,-4.72039 -2.75977,-8.400391 V 32.429688 h 18.80078 V 25.380859 H 239.08984 V 11.869141 Z m 68.03906,13.041015 c -5.72,0 -10.86922,1.34 -15.44922,4 -4.58,2.66 -8.19054,6.380156 -10.81054,11.160156 -2.63,4.77 -3.93946,10.178985 -3.93946,16.208985 0,6.03 1.36938,11.430937 4.10938,16.210937 2.75,4.78 6.56094,8.520703 11.46094,11.220704 4.89,2.7 10.51937,4.048828 16.85937,4.048828 4.93,0 9.46031,-0.860079 13.57031,-2.580078 4.11,-1.720001 7.5393,-4.229532 10.2793,-7.519532 l -4.69922,-5.40039 c -2.35,2.66 -5.12984,4.680781 -8.33984,6.050781 -3.21,1.37 -6.73031,2.058594 -10.57031,2.058594 -6.82,0 -12.45993,-1.969688 -16.91993,-5.929688 -4.46,-3.96 -6.93039,-9.150312 -7.40039,-15.570312 h 51.69141 L 328.75,56.279297 c 0,-6.11 -1.30086,-11.529531 -3.88086,-16.269531 -2.58,-4.73 -6.14945,-8.43961 -10.68945,-11.09961 -4.54,-2.67 -9.67063,-4 -15.39063,-4 z m 78.14063,0 c -5.72,0 -10.51063,1.049922 -14.39063,3.169922 h -0.01 c -3.87,2.12 -6.79,5.250391 -8.75,9.400391 v -12.09961 h -7.99024 v 61.798829 h 8.3418 V 55.689453 c 0,-7.2 1.83953,-12.798828 5.51953,-16.798828 3.69,-3.99 8.7793,-5.990234 15.2793,-5.990234 l 2,0.11914 z m -273.28907,0.470703 v 35.81836 c 0,8.7 2.33024,15.300781 6.99024,19.800781 4.66,4.51 11.01984,6.759766 19.08984,6.759766 4.94,0 9.32016,-1.029375 13.16016,-3.109375 3.84,-2.07 6.85883,-4.99 9.04883,-8.75 v 11.279297 h 7.99023 V 25.380859 h -8.33984 v 32.429688 c 0,7.05 -1.88063,12.549766 -5.64063,16.509765 -3.76,3.950001 -8.88867,5.929688 -15.38867,5.929688 -5.96,0 -10.54,-1.680781 -13.75,-5.050781 -3.22,-3.36 -4.82031,-8.298828 -4.82031,-14.798828 V 25.380859 Z m 195.16016,6.699219 c 6.03,0 11.05961,1.899219 15.09961,5.699219 4.03,3.8 6.31914,8.751328 6.86914,14.861328 h -43.83008 c 0.54,-6.11 2.8311,-11.061328 6.8711,-14.861328 h 0.01 c 4.03,-3.8 8.95047,-5.699219 14.98047,-5.699219 z"
       fill="#ffffff"
       id="path2" />
    <path
       d="m 429.12,67.85 c -3.03,3.03 -7.21,4.9 -11.83,4.9 -9.24,0 -16.73,-7.49 -16.73,-16.73 0,-9.24 7.49,-16.73 16.73,-16.73 4.62,0 8.8,1.87 11.83,4.9 L 439.3,34.02 c -5.63,-5.63 -13.41,-9.12 -22.01,-9.12 -17.19,0 -31.12,13.93 -31.12,31.12 0,17.19 13.93,31.12 31.12,31.12 8.59,0 16.38,-3.48 22.01,-9.12 z"
       fill="#0014e6"
       id="path4" />
    <path
       d="m 549.7,24.9 c -17.19,0 -31.12,13.93 -31.12,31.12 v 31.12 h 14.39 V 56.02 c 0,-9.24 7.49,-16.73 16.73,-16.73 9.24,0 16.73,7.49 16.73,16.73 v 31.12 h 14.39 V 56.02 C 580.82,38.83 566.89,24.9 549.7,24.9"
       fill="#0014e6"
       id="path6" />
    <path
       d="m 483.32,56.02 c 0,4.42 -3.58,8 -8,8 -4.42,0 -8,-3.58 -8,-8 0,-4.42 3.58,-8 8,-8 4.42,0 8,3.58 8,8"
       fill="#f3fbff"
       id="path8" />
    <path
       d="m 518.13,35.3 c -0.09,-0.19 -0.3,-0.3 -0.5,-0.3 l -17.95,1.41 7.96,-16.52 c 0.09,-0.2 0.05,-0.43 -0.11,-0.58 -0.16,-0.15 -0.4,-0.18 -0.59,-0.08 -6.4,3.52 -16.03,8.76 -17.1,9.25 -4.33,-2.29 -9.27,-3.59 -14.52,-3.59 -17.19,0 -31.12,13.93 -31.12,31.12 0,17.19 13.93,31.12 31.12,31.12 17.19,0 31.12,-13.93 31.12,-31.12 0,-2.83 -0.38,-5.57 -1.09,-8.17 l 12.66,-11.98 c 0.16,-0.15 0.2,-0.37 0.11,-0.57 z m -42.8,37.45 c -9.24,0 -16.73,-7.49 -16.73,-16.73 0,-9.24 7.49,-16.73 16.73,-16.73 9.24,0 16.73,7.49 16.73,16.73 0,9.24 -7.49,16.73 -16.73,16.73 z"
       fill="#0014e6"
       id="path10" />
  </g>
</svg>
